# xmcd CD database file
#
# Track frame offsets:
#	150
#	17875
#	41275
#	63475
#	82125
#	97600
#	118325
#	139475
#	162075
#	177375
#	193000
#	217500
#	227100
#	244250
#	260200
#	272125
#	298275
#	326775
#
# Disc length: 4600 seconds
#
# Revision: 0
# Processed by: cddbd v1.5.2PL0 Copyright (c) Steve Scherf et al.
# Submitted via: Feurio! 1.68 - http://www.feurio.com
#
DISCID=1411f612
DTITLE=Various Artist - Pop and Wave - Die deutschen Wave Klassiker  [CD2 von 2)
DYEAR=1900
DGENRE=
TTITLE0=Jawoll - Rendezvous-Ich hab Dich seit langem nicht gesehen
TTITLE1=Falco - Jeanny (part1)
TTITLE2=Karat - Der blaue Planet
TTITLE3=Grobschnitt - Wir wollen leben
TTITLE4=Rio Reiser - Der König von Deutschland
TTITLE5=Der Plan - Gummitwist
TTITLE6=Foyer Des Artes - Wissenwertes über Erlangen
TTITLE7=Liaisons Dangereuses - Los Ninos del Parque
TTITLE8=Trio - Da da da ich lieb dich nicht - du liebst mich nicht
TTITLE9=DAF - Der Räuber und der Prinz
TTITLE10=Die Krupps - wahre Arbeit, wahrer Lohn
TTITLE11=FSK - Liebe tut weh
TTITLE12=Purple Schulz und die neue Heimat - Sehnsucht
TTITLE13=Nichts - Tango 2000
TTITLE14=Humpe Humpe - Yama Ha
TTITLE15=OFF - Electrica Salsa (Baba Baba)
TTITLE16=George Kranz - Din Daa Daa (Trommeltanz)
TTITLE17=Culture Beat - Erdbeermund
EXTD=
EXTT0=
EXTT1=
EXTT2=
EXTT3=
EXTT4=
EXTT5=
EXTT6=
EXTT7=
EXTT8=
EXTT9=
EXTT10=
EXTT11=
EXTT12=
EXTT13=
EXTT14=
EXTT15=
EXTT16=
EXTT17=
PLAYORDER=
